<svg id="Group" xmlns="http://www.w3.org/2000/svg" xmlns:xlink="http://www.w3.org/1999/xlink" width="76" height="76" viewBox="0 0 76 76">
  <defs>
    <clipPath id="clip-path">
      <path id="icon_maps_track_24px" data-name="icon/maps/track_24px" d="M25.1,5.672A1.512,1.512,0,0,0,25,7.7,12.085,12.085,0,0,1,27.35,18.351,12.317,12.317,0,1,1,13.841,3.2V6.3a9.223,9.223,0,1,0,9.185,3.923,1.522,1.522,0,0,0-2.308-.169l-.015.015a1.556,1.556,0,0,0-.169,1.954,6.165,6.165,0,1,1-6.693-2.569V12.75A3.046,3.046,0,0,0,12.3,15.4a3.077,3.077,0,1,0,6.154,0,3.028,3.028,0,0,0-1.539-2.646V1.1A1.1,1.1,0,0,0,15.826.01a15.395,15.395,0,1,0,14.6,18.663A15.156,15.156,0,0,0,27.4,5.8,1.538,1.538,0,0,0,25.1,5.672Z" transform="translate(0)" fill="#37474f"/>
    </clipPath>
  </defs>
  <rect id="Rectangle" width="76" height="76" rx="38" fill="#717cff"/>
  <g id="track_24px" transform="translate(20 19)">
    <g id="Group_3" data-name="Group 3" transform="translate(3.1 3.083)">
      <path id="icon_maps_track_24px-2" data-name="icon/maps/track_24px" d="M25.1,5.672A1.512,1.512,0,0,0,25,7.7,12.085,12.085,0,0,1,27.35,18.351,12.317,12.317,0,1,1,13.841,3.2V6.3a9.223,9.223,0,1,0,9.185,3.923,1.522,1.522,0,0,0-2.308-.169l-.015.015a1.556,1.556,0,0,0-.169,1.954,6.165,6.165,0,1,1-6.693-2.569V12.75A3.046,3.046,0,0,0,12.3,15.4a3.077,3.077,0,1,0,6.154,0,3.028,3.028,0,0,0-1.539-2.646V1.1A1.1,1.1,0,0,0,15.826.01a15.395,15.395,0,1,0,14.6,18.663A15.156,15.156,0,0,0,27.4,5.8,1.538,1.538,0,0,0,25.1,5.672Z" transform="translate(0)" fill="#fff"/>
    </g>
  </g>
</svg>
