<svg id="Group" xmlns="http://www.w3.org/2000/svg" width="76" height="76" viewBox="0 0 76 76">
  <rect id="Rectangle" width="76" height="76" rx="38" fill="#70ce88"/>
  <g id="file-checked" transform="translate(20 19)">
    <path id="icon" d="M2.484,28.929A2.564,2.564,0,0,1,0,26.3V2.629A2.562,2.562,0,0,1,2.484,0H15.417l6.938,7.345V26.3a2.564,2.564,0,0,1-2.484,2.631Zm0-2.631H19.87V10.52H14.9A2.56,2.56,0,0,1,12.42,7.889V2.629H2.484ZM14.9,7.889h4.452L14.9,3.174ZM5.331,18.024l1.757-1.859,2.847,3.015,5.332-5.644,1.757,1.859L9.934,22.9Z" transform="translate(7.708 3.083)" fill="#fff"/>
  </g>
</svg>
