<svg id="Group" xmlns="http://www.w3.org/2000/svg" xmlns:xlink="http://www.w3.org/1999/xlink" width="76" height="76" viewBox="0 0 76 76">
  <defs>
    <clipPath id="clip-path">
      <path id="airplane" d="M9.018,0h2.569a5.009,5.009,0,0,1,3.885,2.207l3.18,5.337h5.782a1.285,1.285,0,0,1,0,2.569h-5.9l-3.18,5.337a5.009,5.009,0,0,1-3.885,2.207H8.9l4.5-7.544H4.412L2.569,13.265H0L2.594,8.829V8.787L.025,4.393H2.594L4.437,7.544h9.076Z" fill="#2d2d2d"/>
    </clipPath>
  </defs>
  <rect id="Rectangle" width="76" height="76" rx="38" fill="#fa706c"/>
  <g id="icon_maps_track_24px" data-name="icon/maps/track_24px" transform="translate(20 19)">
    <g id="Group_6" data-name="Group 6" transform="translate(5.64 9.671)">
      <path id="airplane-2" data-name="airplane" d="M9.018,0h2.569a5.009,5.009,0,0,1,3.885,2.207l3.18,5.337h5.782a1.285,1.285,0,0,1,0,2.569h-5.9l-3.18,5.337a5.009,5.009,0,0,1-3.885,2.207H8.9l4.5-7.544H4.412L2.569,13.265H0L2.594,8.829V8.787L.025,4.393H2.594L4.437,7.544h9.076Z" fill="#fff"/>
    </g>
  </g>
</svg>
