<svg xmlns="http://www.w3.org/2000/svg" width="40" height="40" viewBox="0 0 40 40">
  <path id="instagram_2_" data-name="instagram (2)" d="M22,17.04A4.96,4.96,0,1,0,26.96,22,4.96,4.96,0,0,0,22,17.04Zm19.86-4.9a13.06,13.06,0,0,0-.84-4.52,8,8,0,0,0-4.64-4.64,13.06,13.06,0,0,0-4.52-.84C29.28,2,28.52,2,22,2s-7.28,0-9.86.14a13.06,13.06,0,0,0-4.52.84A8,8,0,0,0,2.98,7.62a13.06,13.06,0,0,0-.84,4.52C2,14.72,2,15.48,2,22s0,7.28.14,9.86a13.72,13.72,0,0,0,.84,4.54A7.88,7.88,0,0,0,4.8,39.2a7.78,7.78,0,0,0,2.82,1.82,13.06,13.06,0,0,0,4.52.84C14.72,42,15.48,42,22,42s7.28,0,9.86-.14a13.06,13.06,0,0,0,4.52-.84A7.78,7.78,0,0,0,39.2,39.2a7.88,7.88,0,0,0,1.82-2.8,13.2,13.2,0,0,0,.84-4.54C42,29.28,42,28.52,42,22s0-7.28-.14-9.86Zm-5.08,16a11.46,11.46,0,0,1-.78,3.6A7.72,7.72,0,0,1,31.74,36a11.46,11.46,0,0,1-3.62.7H15.88a11.46,11.46,0,0,1-3.62-.7A7.445,7.445,0,0,1,8,31.74a10.98,10.98,0,0,1-.68-3.62V15.88A10.98,10.98,0,0,1,8,12.26,7.02,7.02,0,0,1,9.72,9.64,7.18,7.18,0,0,1,12.26,8a11.46,11.46,0,0,1,3.62-.7H28.12a11.46,11.46,0,0,1,3.62.7A7.445,7.445,0,0,1,36,12.26a11.46,11.46,0,0,1,.7,3.62V22c0,4.12.14,4.54.08,6.12Zm-3.2-14.88a4.76,4.76,0,0,0-2.82-2.82A8,8,0,0,0,28,10H16a8,8,0,0,0-2.76.52,4.76,4.76,0,0,0-2.82,2.72A8.54,8.54,0,0,0,10,16V28a8.54,8.54,0,0,0,.52,2.76,4.76,4.76,0,0,0,2.82,2.82A8.54,8.54,0,0,0,16,34.1H28a8,8,0,0,0,2.76-.52,4.76,4.76,0,0,0,2.82-2.82A8,8,0,0,0,34.1,28V16a7.56,7.56,0,0,0-.52-2.76ZM22,29.64A7.62,7.62,0,0,1,14.38,22h0A7.64,7.64,0,1,1,22,29.64Zm8-13.78a1.8,1.8,0,0,1,0-3.58h0a1.8,1.8,0,0,1,0,3.58Z" transform="translate(-2 -2)" fill="#fff"/>
</svg>
