<svg xmlns="http://www.w3.org/2000/svg" width="43.627" height="35.449" viewBox="0 0 43.627 35.449">
  <path id="twitter_1_" data-name="twitter (1)" d="M14.6,48.175c16.464,0,25.467-13.64,25.467-25.467,0-.387,0-.774-.024-1.158a18.213,18.213,0,0,0,4.465-4.634,17.867,17.867,0,0,1-5.139,1.41A8.985,8.985,0,0,0,43.3,13.374a17.936,17.936,0,0,1-5.685,2.174,8.958,8.958,0,0,0-15.251,8.163A25.411,25.411,0,0,1,3.918,14.359,8.958,8.958,0,0,0,6.682,26.31a8.885,8.885,0,0,1-4.033-1.123q0,.057,0,.114a8.955,8.955,0,0,0,7.165,8.775,8.937,8.937,0,0,1-4.044.152,8.961,8.961,0,0,0,8.363,6.221A17.971,17.971,0,0,1,3.016,44.27,18.218,18.218,0,0,1,.88,44.145,25.339,25.339,0,0,0,14.6,48.165" transform="translate(-0.88 -12.727)" fill="#fff"/>
</svg>
